<?xml version="1.0" standalone="no"?>
<!DOCTYPE svg PUBLIC "-//W3C//DTD SVG 20010904//EN"
 "http://www.w3.org/TR/2001/REC-SVG-20010904/DTD/svg10.dtd">
<svg version="1.0" xmlns="http://www.w3.org/2000/svg"
 width="180.000000pt" height="180.000000pt" viewBox="0 0 180.000000 180.000000"
 preserveAspectRatio="xMidYMid meet">
<metadata>
Created by potrace 1.16, written by Peter Selinger 2001-2019
</metadata>
<g transform="translate(0.000000,180.000000) scale(0.028125,-0.028125)"
fill="#000000" stroke="none">
<path d="M1736 6384 c-3 -9 -6 -25 -6 -37 0 -12 -10 -28 -22 -36 -18 -11 -23
-11 -32 1 -21 27 -106 5 -106 -27 0 -8 -9 -15 -20 -15 -10 0 -23 -6 -27 -12
-4 -7 -17 -18 -28 -24 -20 -12 -22 -24 -11 -69 4 -15 2 -25 -4 -25 -6 0 -8 5
-5 10 3 6 2 10 -4 10 -5 0 -15 -13 -23 -30 -8 -18 -20 -30 -32 -30 -11 0 -16
-3 -13 -7 7 -7 -38 -33 -58 -33 -22 0 -40 -29 -27 -42 17 -17 16 -94 0 -80
-19 14 -59 8 -70 -11 -6 -11 -5 -17 2 -17 16 0 12 -38 -11 -81 -35 -69 -37
-169 -4 -169 8 0 15 -9 15 -20 0 -11 5 -20 10 -20 6 0 9 15 7 34 -3 25 0 33 9
29 15 -5 28 47 19 76 -4 14 0 21 15 26 11 3 20 10 20 15 0 5 12 2 28 -6 15 -7
33 -14 40 -14 17 0 15 -36 -4 -54 -8 -9 -13 -24 -11 -34 4 -16 5 -16 6 1 1 21
21 23 21 2 0 -8 7 -15 15 -15 9 0 12 6 8 16 -5 14 -1 16 21 12 19 -4 29 0 37
13 12 24 29 25 30 2 0 -13 3 -11 10 6 5 14 7 31 5 38 -3 7 0 26 6 41 6 15 12
29 12 32 1 7 45 50 51 50 8 0 8 3 -6 48 -11 38 -10 45 4 59 14 14 20 15 41 4
13 -7 29 -10 35 -7 6 4 9 1 5 -7 -3 -10 4 -14 26 -14 18 0 30 6 30 13 0 8 6
11 15 8 8 -4 21 -1 29 5 7 6 16 8 19 4 4 -3 12 -1 19 5 7 5 40 17 73 26 l60
16 20 -24 c11 -14 34 -28 50 -31 17 -4 46 -20 65 -35 53 -41 120 -73 165 -77
22 -2 51 -6 65 -7 26 -3 50 -11 88 -29 18 -9 25 -8 31 2 7 11 13 10 34 -4 14
-9 28 -23 31 -31 3 -8 17 -14 31 -14 14 0 25 -5 25 -11 0 -6 7 -17 15 -25 8
-9 15 -26 15 -40 0 -13 5 -24 10 -24 6 0 10 5 10 10 0 20 19 9 22 -12 2 -18 9
-22 35 -22 22 1 34 -4 38 -15 2 -9 18 -22 35 -29 30 -14 31 -15 35 -100 0 -13
7 -27 15 -33 13 -8 13 -10 1 -18 -19 -12 -7 -90 17 -107 16 -13 16 -13 0 -14
-26 0 -22 -15 7 -28 29 -13 33 -46 8 -58 -10 -4 -21 -7 -24 -6 -4 1 -5 -7 -2
-17 3 -10 -2 -21 -10 -24 -24 -9 -57 4 -58 22 0 10 -2 11 -6 4 -2 -7 -13 -13
-23 -13 -10 0 -20 -7 -24 -15 -3 -9 -18 -15 -35 -15 -21 0 -28 -5 -27 -17 1
-19 -45 -47 -54 -33 -6 10 -60 -35 -60 -49 0 -5 -11 -11 -25 -13 -20 -4 -24
-2 -21 16 5 30 -19 83 -54 119 -16 17 -30 35 -30 40 0 5 -6 7 -12 4 -7 -2 -32
6 -56 19 -38 20 -54 22 -151 20 -88 -2 -113 -6 -127 -20 -12 -12 -26 -16 -45
-12 -27 5 -27 4 -26 -41 l2 -47 -45 -14 c-25 -7 -54 -16 -65 -18 -90 -17 -135
-32 -159 -51 l-29 -23 25 -19 c19 -15 28 -37 38 -93 l13 -73 19 60 c32 106 66
169 101 185 59 27 307 14 307 -15 0 -9 -6 -12 -15 -9 -10 4 -15 0 -15 -14 0
-24 -16 -38 -23 -20 -6 15 -47 -20 -50 -43 -4 -25 -18 -39 -57 -59 -30 -15
-37 -24 -33 -40 7 -26 55 -60 90 -64 16 -2 31 -4 36 -5 4 0 7 -12 7 -25 0 -14
4 -27 10 -31 17 -10 78 -8 107 4 36 15 52 40 60 96 5 37 2 51 -18 80 -22 32
-41 46 -38 28 5 -30 -18 -47 -46 -37 -32 13 -7 103 26 92 8 -3 22 -1 32 4 12
6 24 5 35 -4 13 -9 12 -7 -2 10 -19 22 -19 22 2 22 11 0 24 -5 27 -10 4 -6 15
-8 25 -5 27 9 75 -46 96 -107 12 -37 15 -75 12 -147 -3 -84 -8 -106 -34 -159
-17 -34 -27 -62 -24 -62 9 0 60 73 60 86 2 40 72 137 97 132 15 -3 73 -75 71
-88 -1 -3 4 -18 10 -33 7 -16 12 -34 12 -40 0 -7 7 -20 15 -30 22 -29 29 -94
14 -130 -20 -49 -90 -148 -102 -144 -5 1 -12 14 -14 28 -5 30 -40 66 -75 74
-21 5 -31 1 -50 -20 -52 -60 -40 -86 30 -68 26 7 41 6 48 -1 15 -17 1 -59 -24
-72 -43 -21 -62 -46 -57 -73 6 -32 30 -51 66 -51 31 0 47 -16 31 -32 -7 -7 1
-20 24 -40 31 -27 34 -35 34 -82 0 -51 -24 -96 -50 -96 -6 0 -5 -9 2 -19 17
-27 -12 -88 -48 -102 l-27 -10 6 -222 c5 -212 3 -219 -19 -80 -4 29 -9 32 -49
39 -30 4 -50 2 -60 -6 -11 -9 -23 -9 -44 -2 -16 6 -32 8 -35 5 -3 -4 -6 3 -6
15 0 18 -6 22 -30 22 -19 0 -30 -5 -30 -14 0 -32 -29 -24 -47 12 -16 32 -22
37 -48 34 -27 -2 -32 2 -44 33 -7 20 -18 34 -24 32 -7 -2 -17 3 -24 12 -11 14
-12 11 -13 -16 0 -17 -5 -44 -10 -59 l-10 -27 -19 22 c-10 11 -23 21 -28 21
-6 0 -16 7 -23 15 -7 9 -19 14 -27 11 -7 -3 -22 3 -33 14 -11 11 -26 17 -35
14 -10 -4 -15 0 -15 12 0 16 -2 17 -10 4 -8 -12 -10 -11 -10 8 0 12 -6 22 -14
22 -8 0 -16 6 -19 13 -5 15 -47 -19 -47 -40 0 -15 -16 -17 -25 -3 -4 6 -11 8
-16 5 -5 -4 -12 1 -15 9 -3 9 -9 14 -14 11 -4 -2 -13 7 -20 20 -7 14 -17 25
-21 25 -12 0 -3 -68 13 -92 8 -13 18 -36 22 -53 4 -16 15 -35 25 -42 10 -7 21
-25 24 -40 9 -43 200 -233 235 -233 5 0 34 -18 65 -40 32 -22 57 -36 57 -32 0
4 6 0 13 -8 7 -8 32 -26 57 -39 25 -12 56 -32 70 -43 23 -19 23 -21 7 -33 -16
-11 -16 -14 -1 -26 10 -8 14 -23 12 -40 -3 -16 -1 -26 2 -24 4 3 12 -7 18 -20
6 -13 26 -32 44 -41 18 -9 47 -28 64 -40 17 -13 38 -24 48 -24 9 0 30 -13 48
-30 17 -16 39 -30 48 -30 28 0 43 52 38 130 -2 38 0 70 4 70 4 0 8 -42 8 -92
0 -51 3 -134 7 -184 6 -106 8 -104 -86 -120 -161 -27 -563 58 -754 160 -76 40
-89 43 -107 21 -10 -12 -7 -19 16 -40 15 -14 32 -25 39 -25 7 0 18 -20 24 -44
7 -28 26 -60 51 -86 22 -23 40 -47 40 -54 0 -7 5 -17 11 -23 8 -8 6 -11 -6
-10 -10 1 -20 -4 -22 -10 -3 -9 5 -13 23 -13 26 0 26 -1 11 -18 -10 -10 -14
-22 -10 -25 3 -4 1 -7 -5 -7 -7 0 -12 7 -12 15 0 8 -7 15 -15 15 -9 0 -26 11
-39 25 -13 14 -32 24 -42 24 -50 -5 -75 1 -72 17 2 10 -3 19 -9 21 -23 8 -16
-65 6 -77 19 -10 19 -11 3 -40 -9 -16 -24 -30 -32 -30 -11 1 -10 4 4 15 11 8
15 15 9 15 -6 0 -13 9 -16 20 -6 23 -39 27 -55 7 -16 -19 -3 -57 19 -57 23 0
24 -13 2 -31 -13 -11 -17 -11 -20 -1 -3 6 -9 9 -15 6 -6 -4 -18 3 -27 14 -19
26 -39 17 -43 -18 -2 -14 -11 -28 -21 -32 -26 -11 -10 -31 19 -24 19 5 24 2
24 -14 0 -17 -5 -19 -24 -14 -18 4 -27 1 -36 -15 -6 -12 -17 -21 -25 -21 -8 0
-15 -7 -15 -17 0 -15 -1 -15 -18 0 -25 23 -36 21 -52 -8 -12 -22 -16 -24 -34
-12 -35 22 -51 11 -52 -34 -2 -53 -20 -70 -75 -71 -24 0 -47 -5 -51 -12 -6 -8
-8 -7 -8 2 0 20 -44 14 -58 -9 -9 -14 -20 -19 -33 -16 -10 3 -19 2 -19 -3 0
-4 -9 -10 -20 -13 -21 -5 -28 -27 -9 -27 5 0 7 -4 4 -10 -10 -17 -42 -11 -56
10 -8 11 -29 24 -46 29 -29 9 -33 7 -33 -10 0 -14 -7 -19 -28 -19 -15 0 -33 5
-40 12 -9 9 -12 7 -12 -10 0 -17 6 -22 25 -22 16 0 25 -6 25 -15 0 -11 -7 -14
-25 -9 -15 4 -25 2 -25 -5 0 -6 -8 -8 -18 -4 -16 6 -16 5 0 -14 10 -11 18 -24
18 -30 0 -6 6 -13 13 -16 8 -3 4 -12 -13 -26 l-25 -23 30 6 c17 3 24 3 18 0
-7 -3 -13 -12 -13 -20 0 -11 -10 -13 -42 -8 -24 3 -49 8 -56 10 -17 5 -52 -13
-52 -27 0 -6 8 -8 17 -5 9 4 20 1 24 -5 4 -7 22 -17 41 -23 51 -17 45 -47 -14
-67 -26 -8 -51 -19 -55 -23 -4 -4 0 -4 9 -1 9 4 19 1 23 -5 5 -8 10 -8 20 0 8
7 19 9 25 5 16 -10 12 -35 -7 -36 -111 -3 -148 -31 -44 -32 41 -1 48 -3 39
-14 -6 -7 -23 -12 -37 -11 -30 2 -101 -28 -101 -42 0 -6 11 -10 24 -10 14 0
28 -4 31 -10 3 -5 2 -10 -4 -10 -6 0 -15 -18 -22 -39 -7 -24 -19 -41 -30 -44
-26 -7 -24 -37 1 -37 11 0 20 -4 20 -9 0 -5 -9 -7 -20 -4 -14 4 -20 0 -20 -12
0 -12 5 -15 23 -10 18 6 20 5 9 -6 -18 -19 -15 -41 6 -37 9 1 23 -1 31 -6 9
-6 18 -3 27 8 8 11 14 13 19 6 4 -6 -10 -27 -29 -48 -20 -20 -35 -46 -35 -57
1 -17 2 -17 6 -3 4 15 8 16 25 7 17 -9 20 -17 14 -55 -6 -49 9 -60 32 -24 7
12 18 18 24 14 7 -5 3 -14 -14 -28 -42 -35 -69 -81 -56 -94 18 -18 28 -15 28
8 0 10 6 23 14 27 7 4 15 15 18 23 5 12 7 11 13 -5 5 -11 14 -28 22 -37 13
-15 12 -18 -14 -32 -26 -14 -26 -15 -5 -16 27 0 29 -16 2 -25 -27 -9 -25 -35
3 -36 20 -1 20 -2 2 -6 -34 -9 -47 -25 -40 -52 5 -19 1 -29 -17 -42 -18 -14
-20 -21 -11 -30 18 -18 63 4 63 31 0 16 7 20 30 20 17 0 30 -4 30 -10 0 -5 -4
-10 -9 -10 -6 0 -16 -12 -23 -28 -8 -16 -21 -26 -32 -25 -15 1 -17 -4 -13 -32
8 -47 45 -88 74 -80 16 4 23 1 23 -10 0 -8 -4 -15 -10 -15 -5 0 -10 -9 -10
-20 0 -18 4 -20 40 -14 30 5 40 3 40 -7 0 -10 3 -10 12 -1 7 7 25 12 40 12 64
0 19 -90 -79 -159 -18 -12 -33 -27 -33 -32 0 -16 15 -10 48 21 18 17 37 30 42
30 4 0 10 6 13 13 3 7 24 26 48 42 24 16 62 44 85 62 23 18 44 33 48 33 4 0
21 13 39 30 18 16 39 30 47 30 15 -1 2 -14 -99 -95 -27 -22 -50 -46 -50 -53
-1 -7 -6 -10 -12 -7 -6 4 -41 -26 -80 -66 -38 -41 -80 -85 -94 -99 -14 -14
-25 -30 -25 -36 0 -6 -13 -23 -29 -39 -34 -31 -81 -124 -81 -158 0 -16 8 -8
30 31 17 28 35 52 41 52 6 0 8 4 5 9 -6 10 136 151 153 151 6 0 11 5 11 10 0
6 7 10 15 10 8 0 15 5 15 10 0 6 6 10 13 10 7 0 18 9 25 20 7 11 19 20 27 20
8 0 15 5 15 10 0 6 7 10 15 10 8 0 15 -7 15 -16 0 -11 6 -14 23 -8 12 4 25 11
28 17 4 5 14 7 23 4 11 -4 27 3 45 21 35 34 69 62 77 62 3 0 17 9 31 20 14 11
34 20 45 20 10 0 31 12 46 26 15 14 42 32 60 40 18 8 36 21 39 30 3 8 12 13
19 10 8 -3 14 -1 14 4 0 6 11 10 25 10 14 0 25 6 25 13 0 9 2 9 8 -1 9 -14 54
-2 67 17 3 6 22 11 42 11 19 0 60 7 91 16 72 21 228 24 305 5 66 -16 79 -10
49 22 -17 18 -19 26 -10 35 9 9 5 12 -20 12 -22 0 -35 6 -43 22 -7 13 -18 26
-24 30 -17 10 -55 84 -55 107 0 11 -9 21 -21 24 -23 6 -23 4 -1 89 6 21 6 35
1 32 -5 -3 -9 -11 -9 -18 0 -8 -7 -19 -16 -26 -12 -11 -18 -11 -30 2 -13 13
-13 17 4 39 19 24 25 59 11 59 -5 0 -13 -9 -19 -20 -6 -11 -17 -20 -25 -20
-26 0 -27 21 -1 55 40 52 29 78 -14 35 -12 -12 -25 -18 -30 -15 -17 11 -11 35
15 61 43 43 23 64 -22 22 -17 -16 -26 -19 -34 -11 -18 18 -2 60 26 67 28 7 32
18 12 35 -11 8 -18 6 -32 -9 -23 -26 -31 -25 -38 2 -9 31 19 73 38 58 10 -9
15 -6 20 11 5 15 2 25 -9 31 -21 12 -20 37 4 68 26 33 25 45 -1 19 -11 -11
-26 -18 -32 -16 -33 11 -6 97 29 93 9 0 19 5 21 12 8 23 -28 12 -52 -16 -23
-26 -25 -26 -42 -9 -16 16 -16 19 -1 45 9 15 26 28 38 30 11 2 26 12 33 23 14
23 26 24 41 3 11 -14 13 -13 23 9 10 22 9 24 -13 19 -20 -4 -24 0 -24 20 0 13
5 29 11 35 9 9 7 10 -9 6 -27 -7 -40 21 -24 48 9 15 9 17 -2 13 -18 -7 -27
-64 -10 -64 18 0 27 -36 14 -60 -12 -22 -40 -27 -40 -7 -1 6 -7 -2 -14 -19
-14 -31 -40 -49 -57 -38 -13 8 -11 48 3 62 8 8 4 11 -18 9 -27 -2 -29 1 -28
31 2 25 -2 32 -16 32 -21 0 -32 34 -17 49 8 8 5 11 -9 11 -11 0 -25 5 -32 12
-8 8 -12 8 -12 1 0 -6 7 -14 16 -17 18 -7 16 -67 -3 -73 -18 -6 -37 35 -23 52
9 11 7 12 -9 8 -31 -8 -44 27 -21 57 16 21 20 22 35 10 14 -12 18 -12 26 1 5
8 9 18 9 22 0 5 10 7 23 5 17 -2 22 -9 22 -30 -1 -40 10 -35 21 9 12 49 47 58
61 16 l10 -28 7 32 c10 42 31 60 51 43 9 -7 14 -19 11 -27 -3 -7 1 -13 8 -13
17 0 37 45 30 67 -5 17 -5 17 6 1 11 -18 36 -26 26 -9 -3 5 4 11 15 14 16 4
25 -2 37 -24 20 -34 28 -36 37 -10 6 21 38 36 55 26 5 -3 10 -16 11 -28 0 -12
3 -16 6 -9 2 6 9 10 14 6 5 -3 9 1 9 9 0 25 29 42 50 29 14 -9 21 -7 36 9 9
10 23 19 31 19 7 0 13 5 13 10 0 6 5 10 11 10 6 0 8 -10 5 -22 -4 -16 -2 -15
6 4 17 40 37 43 50 8 11 -34 20 -37 38 -15 9 11 16 12 26 4 10 -8 16 -3 28 19
13 25 44 49 51 40 1 -2 7 -12 13 -23 9 -16 11 -17 12 -4 0 28 70 34 70 7 0
-16 21 3 31 29 12 33 55 29 52 -5 -3 -20 0 -21 17 -12 11 6 20 17 20 25 0 8 5
15 10 15 6 0 10 -9 10 -20 0 -13 7 -20 20 -20 11 0 20 4 20 9 0 4 10 6 23 4
12 -2 63 8 112 23 102 30 192 53 232 58 26 3 138 23 258 46 57 11 193 -8 220
-30 20 -17 19 -144 -2 -161 -8 -7 -13 -32 -13 -65 0 -53 -1 -54 -27 -54 -64 2
-190 -13 -218 -25 -32 -15 -69 -21 -213 -35 -52 -5 -100 -14 -107 -20 -8 -7
-23 -9 -34 -5 -20 6 -153 -24 -213 -49 -19 -9 -39 -12 -43 -8 -4 4 -5 -4 -2
-18 4 -14 7 -33 7 -43 0 -10 4 -15 10 -12 7 4 7 -3 0 -20 -6 -15 -10 -44 -10
-65 0 -32 3 -38 16 -33 12 4 13 7 3 14 -8 4 -10 11 -6 15 3 4 13 1 21 -5 10
-8 21 -9 33 -3 22 11 149 24 258 27 44 1 145 10 225 19 103 13 224 19 419 20
210 1 275 4 279 14 2 6 9 12 16 12 7 0 22 9 34 20 18 17 25 19 42 8 18 -11 23
-10 32 6 6 10 13 14 17 9 4 -6 19 -6 39 -1 24 6 32 14 32 31 1 21 2 21 25 -6
25 -28 30 -59 19 -115 -5 -27 -11 -30 -55 -36 -28 -4 -57 -2 -68 3 -14 8 -20
7 -25 -4 -3 -8 -15 -15 -26 -15 -11 0 -20 -6 -20 -13 0 -16 -38 -40 -50 -32
-6 4 -10 17 -10 31 0 28 -30 33 -51 8 -7 -8 -21 -13 -31 -11 -10 3 -18 1 -18
-5 0 -5 -4 -6 -10 -3 -5 3 -22 -3 -37 -15 -26 -18 -34 -19 -86 -9 -60 11 -87
3 -87 -26 0 -7 -14 -29 -30 -50 -17 -21 -30 -43 -30 -50 0 -34 -49 -43 -323
-61 -74 -5 -103 -12 -119 -26 -24 -20 -34 -22 -43 -8 -8 13 -25 3 -25 -16 0
-8 9 -14 20 -14 16 0 20 -7 20 -30 0 -16 5 -30 10 -30 6 0 10 8 10 18 0 9 5
24 10 32 8 13 13 12 42 -4 18 -11 38 -25 43 -32 6 -7 28 -14 50 -17 76 -9 109
-19 133 -38 14 -10 31 -19 38 -19 8 0 14 -5 14 -12 0 -6 10 -22 22 -35 18 -19
20 -28 12 -41 -11 -17 -16 -18 -64 -21 -39 -2 -54 -15 -42 -37 6 -11 16 -39
23 -64 7 -25 16 -50 20 -55 16 -21 39 -104 33 -118 -3 -8 2 -17 11 -21 13 -4
15 -13 11 -32 -4 -14 -2 -32 4 -39 16 -19 3 -56 -16 -48 -7 3 -14 14 -14 25 0
11 -7 26 -15 34 -8 8 -12 21 -9 29 4 8 -1 18 -10 21 -9 3 -16 16 -16 29 0 13
-7 26 -16 29 -11 4 -15 14 -12 31 3 14 0 26 -8 29 -8 3 -14 16 -14 29 0 14 -7
30 -15 37 -8 7 -15 21 -15 32 0 11 -7 26 -16 35 -8 9 -13 22 -10 29 3 7 1 16
-4 19 -6 4 -10 16 -10 28 0 24 -36 62 -45 47 -3 -5 -1 -11 5 -15 5 -3 10 -19
10 -35 0 -16 5 -32 10 -35 6 -3 10 -19 10 -36 0 -16 5 -29 10 -29 6 0 10 -13
10 -29 0 -17 5 -33 10 -36 6 -3 10 -17 10 -30 0 -13 5 -27 10 -30 11 -7 14
-48 3 -58 -11 -12 -31 13 -26 33 3 11 -2 26 -10 34 -8 9 -13 24 -10 34 3 12
-2 22 -11 25 -9 4 -16 17 -16 30 0 14 -7 30 -15 37 -8 7 -15 21 -15 31 0 11
-4 19 -10 19 -5 0 -10 14 -10 30 0 18 -6 33 -15 36 -8 4 -15 17 -15 29 0 13
-5 27 -11 30 -6 4 -14 17 -19 29 -8 19 -9 19 -9 2 -1 -21 16 -79 30 -108 5
-10 9 -29 9 -42 0 -14 5 -28 10 -31 6 -3 10 -17 10 -30 0 -13 5 -27 10 -30 6
-3 10 -19 10 -35 0 -16 5 -32 10 -35 6 -4 8 -16 4 -28 -9 -30 -11 -32 -29 -17
-19 15 -34 5 -17 -12 7 -7 12 -27 12 -45 0 -18 4 -33 10 -33 5 0 12 -11 16
-25 7 -28 -10 -55 -33 -55 -12 0 -13 8 -8 39 6 34 4 39 -12 38 -15 -2 -18 5
-16 34 2 29 -1 36 -15 35 -20 -1 -29 41 -13 57 17 17 13 26 -8 20 -37 -9 -32
56 7 80 6 4 12 15 12 24 0 14 -4 13 -23 -5 -28 -26 -43 -28 -51 -6 -6 16 6 39
33 60 8 6 11 16 6 23 -5 9 -13 7 -31 -10 -19 -18 -25 -19 -29 -7 -3 8 -1 27 5
42 15 40 13 49 -11 43 -19 -5 -21 -2 -17 26 6 37 0 60 -13 51 -5 -3 -9 0 -9 5
0 6 5 11 10 11 6 0 10 15 10 33 0 25 -8 38 -36 60 -31 25 -40 28 -72 21 -20
-4 -44 -8 -52 -9 -60 -7 -85 -45 -49 -74 18 -15 19 -20 8 -44 -12 -26 -42 -36
-53 -18 -4 5 -2 21 4 35 8 22 7 26 -9 26 -24 0 -31 18 -19 49 6 16 5 28 -3 35
-8 8 -13 8 -16 -2 -8 -22 -23 -2 -17 23 4 17 0 26 -15 35 -14 7 -21 21 -21 40
0 17 -5 30 -12 30 -8 0 -13 -14 -13 -39 0 -22 2 -37 4 -35 2 2 10 -1 18 -7 16
-14 17 -51 1 -67 -10 -10 -8 -12 11 -10 19 2 26 -3 32 -24 4 -17 3 -30 -4 -35
-6 -4 -1 -10 13 -15 19 -7 22 -13 17 -42 -4 -27 -2 -33 11 -32 10 0 18 -8 20
-20 4 -26 -34 -75 -53 -67 -17 6 -20 39 -5 48 18 11 11 33 -9 28 -21 -5 -37
25 -21 41 15 15 12 36 -3 30 -21 -8 -40 22 -33 51 5 19 2 25 -9 25 -21 0 -28
21 -16 52 9 23 7 25 -10 21 -13 -4 -22 2 -28 18 -7 16 -10 19 -10 7 -1 -9 -4
-23 -7 -32 -4 -10 -1 -16 9 -16 18 0 30 -40 16 -56 -6 -8 -3 -13 11 -17 23 -6
27 -45 8 -66 -11 -11 -10 -13 3 -8 37 13 52 -38 20 -67 -37 -33 -66 -11 -46
36 4 11 0 18 -15 23 -18 6 -21 12 -17 34 4 20 0 30 -14 40 -12 7 -18 18 -15
27 3 8 9 21 12 29 4 10 0 15 -14 15 -13 0 -24 10 -30 29 -6 16 -20 34 -31 41
-26 14 -28 -1 -2 -17 14 -9 18 -20 15 -39 -3 -17 1 -30 12 -39 11 -8 15 -21
12 -38 -4 -21 -1 -27 13 -27 24 0 25 -36 3 -68 -30 -43 -79 -18 -54 27 9 17 8
21 -4 21 -21 0 -37 32 -25 51 14 22 11 29 -11 29 -23 0 -28 38 -7 59 10 10 8
12 -8 9 -12 -2 -20 -11 -19 -23 0 -34 16 -95 25 -101 5 -3 9 -16 9 -29 0 -13
5 -27 10 -30 6 -3 10 -16 10 -27 0 -25 17 -82 35 -118 7 -14 10 -31 8 -37 -3
-7 0 -13 6 -13 6 0 14 -18 17 -40 4 -22 11 -43 15 -46 5 -3 9 -16 9 -29 0 -13
5 -27 10 -30 6 -3 10 -17 10 -31 0 -14 7 -33 16 -41 9 -9 13 -25 10 -36 -3
-12 0 -27 6 -34 6 -7 8 -24 6 -38 -4 -17 -1 -25 8 -25 13 0 18 -15 16 -49 0
-8 6 -20 14 -28 8 -8 14 -25 14 -38 0 -13 5 -27 10 -30 6 -3 10 -19 10 -34 0
-16 6 -34 14 -40 8 -7 13 -22 10 -34 -2 -11 1 -24 7 -27 5 -4 11 -19 13 -33 1
-15 6 -30 9 -34 4 -3 7 -21 7 -39 0 -18 5 -36 11 -40 6 -3 9 -18 6 -32 -3 -17
1 -30 11 -38 14 -11 15 -15 3 -38 -11 -20 -17 -23 -28 -14 -7 6 -11 19 -8 28
4 12 -1 19 -16 23 -17 5 -21 11 -16 33 3 20 0 28 -14 31 -12 4 -19 14 -19 30
0 14 -8 35 -18 47 l-17 23 -18 -24 c-20 -26 -37 -22 -37 8 0 10 -9 28 -21 40
-13 13 -18 27 -14 40 4 13 2 19 -9 19 -10 0 -16 9 -16 24 0 32 -25 53 -44 37
-11 -9 -18 -8 -30 4 -9 9 -14 21 -11 25 3 5 -4 14 -16 20 -19 11 -20 10 -14
-12 16 -56 38 -108 46 -108 5 0 9 -9 9 -19 0 -11 4 -22 9 -25 5 -3 12 -22 15
-41 4 -20 14 -39 22 -42 7 -3 14 -10 14 -17 1 -15 36 -56 49 -56 6 0 21 -16
35 -36 25 -36 27 -91 4 -105 -6 -4 -10 -31 -10 -60 l1 -54 -18 24 c-14 19 -19
20 -24 8 -3 -8 0 -20 6 -26 7 -7 7 -11 0 -11 -5 0 -22 -11 -36 -24 -29 -27
-27 -56 3 -56 24 0 81 30 75 40 -3 4 5 11 18 14 21 7 22 7 2 17 -17 8 -16 9 6
4 21 -4 28 0 32 16 3 12 10 18 16 14 6 -3 14 1 17 9 3 9 10 16 15 16 14 0 129
80 130 91 8 58 47 86 78 57 10 -11 18 -7 39 18 21 25 33 31 54 28 21 -4 32 2
49 26 16 21 26 27 35 19 14 -12 64 8 64 26 0 20 32 43 37 28 11 -31 63 -6 63
29 0 10 7 18 15 18 8 0 15 -7 15 -15 0 -8 3 -15 8 -15 9 0 140 47 167 60 11 5
45 19 75 31 95 36 170 81 186 110 18 36 18 39 -7 39 -15 0 -20 5 -17 22 2 15
-4 27 -17 34 -11 5 -19 17 -17 26 1 9 -2 19 -8 23 -5 3 -10 19 -10 35 0 16 -5
32 -10 35 -6 3 -7 17 -4 29 4 16 0 25 -11 30 -12 4 -15 13 -11 30 4 16 1 26
-8 29 -8 3 -16 18 -18 34 -2 16 -8 27 -15 26 -8 -2 -13 8 -13 26 0 17 -6 31
-16 35 -12 5 -15 14 -10 38 8 39 9 40 30 32 9 -4 16 -17 16 -34 0 -16 7 -30
16 -34 11 -4 15 -14 12 -31 -4 -17 -1 -25 8 -25 8 0 14 -8 14 -18 0 -10 9 -35
20 -57 11 -22 20 -52 20 -67 0 -15 5 -30 10 -33 6 -3 10 -19 10 -36 0 -19 5
-29 15 -29 10 0 15 -10 15 -29 0 -17 6 -31 15 -35 11 -4 14 -13 10 -29 -7 -27
14 -50 38 -41 9 3 25 21 36 40 19 32 41 45 41 25 0 -12 27 -8 42 7 7 7 16 12
22 12 5 0 40 18 78 40 44 27 70 49 74 64 4 16 11 22 22 19 18 -4 129 74 144
101 5 9 14 16 21 16 18 1 47 45 49 74 3 29 6 30 57 17 144 -37 177 -43 267
-42 55 0 110 3 123 6 15 3 32 -2 43 -12 26 -23 22 -33 -12 -33 -16 0 -30 -4
-30 -9 0 -5 -13 -23 -30 -39 -16 -17 -30 -40 -30 -51 0 -12 -4 -21 -10 -21 -5
0 -10 4 -10 10 0 5 -13 1 -30 -8 -16 -9 -30 -24 -30 -33 0 -21 -28 -45 -63
-53 -18 -4 -33 -18 -44 -41 -9 -19 -23 -35 -31 -35 -8 0 -25 -9 -39 -20 -14
-11 -32 -20 -39 -20 -7 0 -18 -9 -24 -19 -6 -12 -17 -17 -29 -14 -24 6 -61
-33 -62 -66 0 -24 -1 -24 -9 -6 -8 19 -9 19 -9 -3 -1 -15 -8 -26 -21 -29 -10
-3 -22 -14 -26 -25 -3 -12 -11 -17 -21 -14 -18 7 -41 -14 -35 -32 7 -23 -20
-44 -50 -38 -22 4 -30 1 -35 -12 -3 -9 -18 -28 -33 -42 -15 -14 -39 -44 -53
-67 -15 -24 -33 -43 -41 -43 -8 0 -16 -7 -20 -15 -3 -8 -12 -12 -19 -9 -9 3
-17 -3 -20 -16 -4 -17 -11 -20 -26 -15 -14 4 -26 0 -38 -14 -10 -12 -27 -21
-39 -21 -11 0 -29 -9 -39 -20 -10 -11 -29 -20 -42 -20 -16 0 -27 -7 -30 -19
-3 -14 -17 -22 -44 -26 -24 -4 -43 -14 -50 -26 -7 -14 -16 -18 -30 -14 -11 4
-27 1 -36 -6 -8 -8 -32 -21 -52 -30 -34 -16 49 -17 1547 -18 l1582 -1 0 2094
c0 1658 -3 2095 -13 2099 -9 4 -9 6 1 6 16 1 17 142 0 159 -9 9 -9 12 0 12 15
0 15 147 0 156 -5 4 -5 10 0 17 13 16 7 100 -7 105 -6 2 -11 17 -11 33 0 16
-6 32 -13 35 -8 3 -11 17 -9 39 3 29 1 35 -14 35 -12 0 -15 3 -8 8 7 4 8 15 3
27 -6 17 -8 17 -8 3 -1 -18 -16 -23 -58 -19 -13 1 -23 -3 -23 -9 0 -6 7 -10
16 -8 27 5 28 -21 2 -31 -21 -9 -8 -17 17 -11 22 5 55 8 55 5 0 -3 -10 -13
-22 -25 l-22 -20 22 0 c23 0 37 -15 27 -30 -4 -6 -17 -3 -35 10 -15 11 -35 20
-44 20 -9 0 -16 7 -16 15 0 8 -4 15 -9 15 -15 0 -23 -18 -11 -25 5 -3 10 -16
10 -28 0 -18 2 -19 10 -7 7 11 12 12 21 3 16 -16 -26 -37 -71 -35 -23 1 -29
-1 -18 -6 12 -5 15 -11 8 -22 -5 -8 -10 -25 -10 -37 0 -14 -6 -23 -15 -23 -18
0 -19 12 -3 28 9 9 6 17 -12 37 -24 26 -54 33 -65 15 -4 -6 1 -7 12 -3 16 6
16 5 5 -10 -8 -9 -22 -19 -33 -22 -21 -7 -26 -31 -6 -38 10 -4 10 -6 0 -6 -25
-2 -13 -21 22 -35 33 -14 52 -45 20 -32 -9 3 -15 0 -15 -9 0 -9 -10 -15 -24
-15 -15 0 -26 -7 -29 -19 -6 -25 14 -124 27 -133 6 -5 1 -8 -11 -8 -27 0 -30
-12 -8 -30 13 -11 13 -14 1 -24 -20 -16 6 -76 34 -76 28 0 25 -20 -2 -20 -20
-1 -19 -2 7 -14 l30 -13 -39 -24 c-38 -22 -39 -24 -16 -29 13 -3 27 -14 31
-25 6 -17 8 -16 8 8 1 15 6 27 12 27 6 0 8 -8 4 -19 -3 -11 -1 -22 5 -26 5 -3
10 -16 10 -28 0 -16 -3 -18 -12 -9 -19 19 -28 14 -28 -13 0 -16 4 -23 13 -19
9 3 20 -11 32 -43 10 -26 21 -50 25 -53 4 -3 10 -18 13 -35 6 -29 6 -29 -9 5
l-16 35 -18 -23 c-25 -30 -35 -28 -46 10 -11 37 -34 50 -34 19 0 -14 -6 -21
-20 -21 -17 0 -18 -3 -8 -25 9 -19 9 -28 0 -37 -7 -7 -12 -20 -12 -30 0 -10
-5 -18 -10 -18 -6 0 -5 -8 2 -19 10 -16 16 -18 32 -9 14 7 16 13 8 16 -22 7
-13 19 12 15 17 -4 25 0 29 14 4 15 5 14 6 -4 1 -14 -5 -23 -14 -23 -8 0 -15
-4 -15 -10 0 -5 9 -10 19 -10 30 0 51 -11 51 -26 0 -19 -27 -18 -38 2 -6 11
-11 13 -16 5 -4 -6 -4 -16 -1 -21 9 -14 78 -12 94 3 11 10 13 9 8 -5 -4 -10
-2 -18 5 -18 6 0 1 -9 -12 -20 -29 -25 -29 -25 -57 2 -20 18 -23 19 -23 5 0
-9 -4 -17 -10 -17 -5 0 -7 7 -4 15 5 12 -2 15 -30 15 -25 0 -36 -4 -36 -15 0
-8 7 -15 15 -15 8 0 14 -6 12 -12 -1 -8 10 -14 26 -16 15 -2 27 -7 27 -12 0
-5 -7 -7 -15 -4 -9 4 -15 0 -15 -10 0 -22 -37 -21 -43 2 -4 15 -5 15 -6 -2 -1
-12 -6 -16 -16 -13 -19 8 -31 -11 -16 -26 6 -6 11 -14 11 -18 0 -14 -31 -39
-48 -39 -13 0 -13 2 4 15 19 14 19 14 -1 15 -12 0 -26 -5 -33 -12 -9 -9 -12
-9 -12 0 0 7 11 22 25 34 13 11 22 25 19 29 -2 5 0 16 5 26 33 63 41 93 31
113 -6 11 -8 25 -4 31 11 18 12 73 1 87 -12 16 -47 16 -47 -1 0 -7 10 -18 22
-26 l22 -13 -24 -13 c-15 -8 -19 -15 -11 -19 12 -8 15 -74 5 -100 -3 -9 -10
-14 -14 -11 -4 3 -11 -6 -14 -20 -10 -39 -26 -29 -26 15 0 30 -4 40 -16 40
-13 0 -15 -7 -9 -37 4 -21 13 -42 21 -46 21 -12 18 -47 -5 -47 -11 0 -23 5
-26 11 -4 6 -13 8 -21 5 -8 -3 -17 1 -20 9 -7 17 -30 20 -39 5 -4 -6 -1 -17 5
-25 6 -8 9 -19 5 -25 -3 -5 0 -10 9 -10 8 0 16 5 18 11 6 17 38 -2 38 -22 0
-15 -7 -19 -40 -19 -35 0 -40 -3 -40 -22 -1 -13 -7 -34 -15 -48 l-14 -25 -1
23 c0 13 -4 20 -10 17 -5 -3 -10 -15 -10 -26 0 -10 -4 -19 -10 -19 -5 0 -10
11 -10 24 0 17 9 27 31 37 26 10 29 14 17 23 -8 6 -30 11 -49 11 -30 0 -34 -3
-37 -28 -2 -17 4 -37 14 -48 17 -18 16 -20 -1 -33 -11 -8 -26 -11 -34 -8 -8 3
-12 1 -8 -5 4 -7 -6 -13 -26 -16 -17 -3 -42 -8 -54 -12 -19 -6 -23 -4 -23 15
0 13 -11 38 -25 55 -13 18 -21 35 -18 39 3 3 -2 15 -13 27 l-19 21 -6 -28
c-13 -57 -10 -132 6 -148 8 -8 15 -19 15 -25 0 -18 -18 -12 -34 11 -13 18 -16
19 -16 5 0 -9 -4 -17 -9 -17 -16 0 -24 21 -12 33 6 6 11 48 11 101 0 74 -4 97
-20 121 -11 17 -20 38 -20 48 0 9 -4 17 -8 17 -5 0 -7 -20 -6 -45 3 -40 1 -45
-19 -46 -20 -1 -20 -2 3 -8 15 -4 28 -3 32 3 4 6 8 -26 8 -70 0 -58 -4 -85
-14 -93 -11 -9 -16 -9 -21 0 -4 6 -2 15 5 19 8 5 7 9 -4 13 -21 8 -52 -3 -36
-13 8 -5 5 -9 -8 -12 -15 -4 -18 -1 -14 14 4 17 1 19 -17 13 -11 -3 -21 -2
-21 3 0 12 35 22 83 22 20 0 37 5 37 11 0 6 -18 9 -45 8 -54 -4 -69 7 -26 18
35 9 41 23 16 38 -10 7 -18 7 -23 -1 -10 -14 -42 -26 -42 -15 0 5 5 11 11 13
6 2 0 22 -15 48 -18 33 -25 59 -24 98 0 59 -3 64 -35 69 -27 4 -35 13 -40 38
-2 11 -8 30 -15 42 -14 26 -16 47 -3 39 13 -8 22 37 15 74 -5 22 -9 28 -15 18
-7 -10 -9 -10 -9 2 -1 9 -6 5 -15 -10 l-14 -25 -1 38 c0 30 -5 39 -22 46 -16
6 -26 4 -34 -7 -10 -14 -13 -13 -22 4 -6 11 -7 26 -2 34 14 26 -6 57 -39 62
-43 6 -63 -25 -55 -86 7 -45 17 -58 27 -33 3 6 6 -3 6 -20 1 -23 -4 -33 -14
-33 -8 0 -15 5 -15 10 0 6 -6 10 -13 10 -10 0 -14 -13 -13 -43 2 -47 11 -67
29 -67 19 0 8 -75 -14 -99 -27 -28 -15 -45 27 -38 30 5 32 4 22 -12 -9 -15 -7
-26 10 -53 25 -39 28 -68 10 -86 -6 -6 -8 -15 -4 -19 4 -4 11 -1 16 7 16 26
22 3 10 -39 -7 -26 -17 -41 -26 -41 -10 0 -14 6 -10 15 4 11 -2 15 -23 15 -19
0 -32 7 -41 25 -8 15 -22 25 -35 25 -12 0 -39 11 -59 25 -20 14 -41 25 -45 25
-5 0 -26 8 -47 17 l-39 17 30 7 c23 5 14 7 -35 8 -43 1 -94 12 -150 31 -95 33
-143 36 -245 15 -38 -8 -87 -15 -107 -15 -20 0 -65 -7 -100 -14 -35 -8 -102
-18 -150 -22 -102 -8 -96 -17 -90 137 5 117 -5 164 -44 206 -38 41 -98 63
-202 73 -58 6 -102 16 -112 25 -14 12 -19 12 -36 1 -10 -7 -38 -16 -60 -19
-51 -8 -56 0 -42 74 11 59 5 204 -11 265 -5 22 -17 89 -26 149 -15 106 -15
114 3 185 11 41 25 97 31 125 9 36 21 57 47 79 48 39 43 64 -21 98 -27 15 -57
28 -65 28 -8 0 -24 7 -35 16 -18 13 -19 25 -17 124 2 81 -3 136 -18 208 -19
86 -20 117 -14 282 10 280 -5 318 -201 527 -22 23 -45 43 -51 43 -6 0 -23 9
-38 21 -14 11 -70 42 -123 69 -54 26 -108 60 -120 74 l-23 26 -449 0 c-400 0
-450 -2 -455 -16z m1471 -1389 c53 -45 83 -107 83 -172 0 -58 -33 -164 -64
-208 l-21 -30 -7 50 c-15 111 -19 131 -28 150 -19 41 -30 102 -30 166 0 92 6
96 67 44z m508 -2185 c81 -13 124 -28 127 -44 6 -45 4 -115 -3 -110 -5 3 -9
-3 -9 -14 0 -10 -10 -28 -22 -39 -25 -21 -144 -48 -175 -39 -10 3 -71 7 -135
10 -109 5 -119 4 -162 -19 -25 -13 -46 -22 -46 -18 0 3 -8 -1 -17 -9 -24 -21
-186 -42 -272 -36 -68 5 -72 7 -116 51 -50 51 -49 48 -35 97 12 43 55 73 130
90 30 7 96 28 145 47 50 19 106 38 125 43 44 12 371 4 465 -10z m1690 -210 c6
-34 2 -51 -25 -103 -18 -34 -39 -70 -48 -80 -8 -9 -20 -27 -26 -40 -6 -12 -32
-32 -58 -45 -33 -15 -50 -30 -54 -47 -3 -14 -16 -33 -29 -43 -12 -10 -26 -28
-30 -41 -7 -22 -5 -23 21 -19 16 3 71 21 122 39 75 27 105 44 157 90 59 53 87
68 158 84 22 4 27 3 21 -7 -9 -14 -10 -19 -12 -60 -1 -18 -8 -28 -17 -28 -23
0 -18 -20 7 -29 15 -5 18 -10 9 -15 -7 -5 -17 -1 -25 9 -11 15 -13 15 -30 -4
-35 -38 -4 -188 41 -205 17 -7 17 -8 1 -17 -29 -16 -21 -28 22 -35 22 -4 43
-10 46 -15 6 -10 -25 -43 -48 -52 -11 -4 -15 -13 -11 -26 5 -18 1 -21 -25 -21
-17 0 -34 -4 -37 -10 -3 -5 1 -10 9 -10 9 0 16 -3 16 -8 0 -11 -37 -41 -44
-35 -11 11 -34 -18 -29 -37 6 -23 -5 -25 -30 -5 -11 7 -25 11 -32 9 -7 -3 -16
-1 -20 5 -3 6 -15 11 -26 11 -10 0 -19 6 -19 14 0 8 -9 18 -20 21 -11 3 -20
10 -20 15 0 4 -12 10 -27 13 -38 7 -154 50 -217 81 -88 42 -145 66 -158 66
-22 1 -45 24 -40 40 3 8 15 29 28 45 12 17 36 59 53 95 18 36 55 97 84 135 43
58 63 75 114 100 45 21 70 41 89 70 39 58 115 135 135 135 12 0 19 -12 24 -40z
m-1945 -1435 c0 -8 9 -15 20 -15 20 0 24 -8 21 -46 -2 -14 5 -23 19 -27 19 -5
21 -10 15 -36 -5 -24 -3 -31 9 -31 17 0 20 -9 16 -47 -1 -16 4 -23 15 -23 14
0 16 -7 13 -31 -4 -22 0 -33 15 -40 18 -10 19 -19 2 -64 -7 -16 -6 -18 6 -7
21 19 29 14 29 -17 0 -17 -6 -31 -16 -35 -27 -11 -36 -7 -29 14 4 13 1 22 -9
26 -9 3 -16 14 -16 24 0 10 -7 20 -15 24 -8 3 -15 15 -15 26 0 11 -7 23 -15
26 -10 4 -13 14 -9 29 4 17 0 24 -15 28 -15 3 -19 10 -15 22 4 9 -1 21 -11 29
-12 8 -16 21 -13 34 4 15 0 22 -14 26 -16 4 -19 11 -16 30 4 18 0 26 -13 29
-16 4 -17 9 -8 36 11 32 49 45 49 16z m-1010 -96 c0 -11 -5 -29 -11 -40 -9
-17 -7 -20 8 -17 14 2 19 -5 21 -32 2 -19 10 -40 19 -47 11 -9 14 -21 9 -47
-6 -32 -4 -36 14 -36 15 0 20 -6 20 -24 0 -14 -4 -28 -10 -31 -17 -10 -11 -25
10 -25 20 0 24 -10 20 -40 -3 -22 -32 -51 -46 -46 -6 2 -16 0 -22 -6 -11 -11
-2 38 13 76 7 15 5 17 -14 11 -30 -9 -39 20 -18 57 16 28 16 29 -1 24 -9 -3
-23 -1 -31 4 -12 7 -13 13 -3 35 15 33 16 32 -8 38 -21 5 -28 41 -10 52 16 10
12 22 -10 28 -39 10 -15 87 27 87 17 0 23 -6 23 -21z"/>
<path d="M5760 6369 c0 -28 2 -30 16 -18 13 10 17 10 25 -2 5 -8 9 -21 9 -29
1 -21 27 -66 35 -60 3 3 29 -49 56 -115 28 -66 54 -129 59 -140 5 -11 11 -33
15 -50 6 -30 10 -41 56 -140 13 -30 23 -73 25 -107 2 -63 20 -127 38 -143 7
-5 21 -28 33 -50 27 -52 53 -103 70 -137 7 -14 16 -55 20 -90 3 -34 11 -66 16
-69 12 -8 37 -77 37 -103 0 -11 12 -44 27 -75 26 -56 37 -93 51 -187 5 -28 18
-64 30 -79 l22 -28 0 827 0 826 -320 0 -320 0 0 -31z"/>
<path d="M2200 4232 c-26 -9 -63 -41 -76 -68 -15 -29 -34 -125 -27 -136 9 -16
36 -7 75 26 22 19 52 37 66 40 50 12 82 28 82 42 0 8 -9 14 -21 14 -19 0 -19
2 -5 21 20 30 10 49 -28 49 -18 0 -36 4 -41 9 -6 5 -17 6 -25 3z"/>
</g>
</svg>
